<mxfile host="65bd71144e">
    <diagram id="yHFHmsuOctcC47Hb3Qxo" name="Page-1">
        <mxGraphModel dx="1250" dy="583" grid="1" gridSize="10" guides="1" tooltips="1" connect="1" arrows="1" fold="1" page="1" pageScale="1" pageWidth="827" pageHeight="1169" math="0" shadow="0">
            <root>
                <mxCell id="0"/>
                <mxCell id="1" parent="0"/>
                <mxCell id="36" value="" style="whiteSpace=wrap;html=1;dashed=1;dashPattern=8 8;direction=south;" parent="1" vertex="1">
                    <mxGeometry x="150" y="241" width="480" height="339" as="geometry"/>
                </mxCell>
                <mxCell id="37" value="" style="aspect=fixed;html=1;points=[];align=center;image;fontSize=12;image=img/lib/azure2/other/Worker_Container_App.svg;" parent="1" vertex="1">
                    <mxGeometry x="150" y="217.85" width="43.43" height="42.15" as="geometry"/>
                </mxCell>
                <mxCell id="44" value="Streamlit Container App" style="text;strokeColor=none;align=center;fillColor=default;html=1;verticalAlign=middle;whiteSpace=wrap;rounded=0;fontSize=14;" parent="1" vertex="1">
                    <mxGeometry x="210" y="223.93" width="180" height="30" as="geometry"/>
                </mxCell>
                <mxCell id="63" value="AI Search" style="sketch=0;aspect=fixed;html=1;points=[];align=center;image;fontSize=12;image=img/lib/mscae/Search.svg;" vertex="1" parent="1">
                    <mxGeometry x="662" y="382" width="50" height="50" as="geometry"/>
                </mxCell>
                <mxCell id="70" style="edgeStyle=none;html=1;" edge="1" parent="1" source="64" target="67">
                    <mxGeometry relative="1" as="geometry"/>
                </mxCell>
                <mxCell id="64" value="Analyst" style="aspect=fixed;html=1;points=[];align=center;image;fontSize=17;image=img/lib/mscae/User_Health_Icon.svg;labelBackgroundColor=default;labelBorderColor=#FFFFFF;fontStyle=1;rounded=0;" vertex="1" parent="1">
                    <mxGeometry x="50" y="332.53999999999996" width="67.12" height="72.96" as="geometry"/>
                </mxCell>
                <mxCell id="65" value="I need financial statements from 2020 - 2024 for this company looking at customer dynamics, market opportuntiy and revenue growth" style="shape=callout;whiteSpace=wrap;html=1;perimeter=calloutPerimeter;position2=0;size=33;position=0.04;rounded=0;" vertex="1" parent="1">
                    <mxGeometry x="117.12" y="270" width="242.88" height="100" as="geometry"/>
                </mxCell>
                <mxCell id="66" value="AI Document &#10;Intelligence Service" style="shape=image;verticalLabelPosition=bottom;verticalAlign=top;imageAspect=1;aspect=fixed;image=data:image/svg+xml,PHN2ZyB4bWxucz0iaHR0cDovL3d3dy53My5vcmcvMjAwMC9zdmciIHZpZXdCb3g9IjAgMCAxOCAxOCI+PGRlZnM+PGxpbmVhckdyYWRpZW50IGlkPSJhIiB4MT0iOSIgeTE9IjE3LjUiIHgyPSI5IiB5Mj0iLjUiIGdyYWRpZW50VW5pdHM9InVzZXJTcGFjZU9uVXNlIj48c3RvcCBvZmZzZXQ9IjAiIHN0b3AtY29sb3I9IiMwMDc4ZDQiLz48c3RvcCBvZmZzZXQ9Ii44MTciIHN0b3AtY29sb3I9IiM1ZWEwZWYiLz48L2xpbmVhckdyYWRpZW50PjwvZGVmcz48cGF0aCBkPSJNOS45NjYuNjI3SDIuNzMxYS41NzEuNTcxIDAgMDAtLjU3MS41NzN2MTUuNmEuNTcxLjU3MSAwIDAwLjU3MS41NzJoMTIuNTM4YS41NzEuNTcxIDAgMDAuNTcxLS41NzJWNi40NzVhLjU3MS41NzEgMCAwMC0uNTcxLS41NzJoLTQuMTYxYS41NzEuNTcxIDAgMDEtLjU3MS0uNTcxVjEuMmEuNTcyLjU3MiAwIDAwLS41NzEtLjU3M3oiIGZpbGw9IiNmZmYiLz48cGF0aCBkPSJNOS43IDEuMzU3djMuOTE5YTEuNDM4IDEuNDM4IDAgMDAxLjQzNiAxLjQzOGgzLjk0N3Y5LjkyOUgyLjkxNVYxLjM1N0g5LjdNOS45NzguNWgtNy4zNGEuNTgxLjU4MSAwIDAwLS41OC41ODF2MTUuODM4YS41ODEuNTgxIDAgMDAuNTguNTgxaDEyLjcyNGEuNTgxLjU4MSAwIDAwLjU4LS41ODFWNi40MzdhLjU4LjU4IDAgMDAtLjU4LS41OGgtNC4yMjRhLjU4LjU4IDAgMDEtLjU4LS41ODFWMS4wODFBLjU4MS41ODEgMCAwMDkuOTc4LjV6IiBmaWxsPSJ1cmwoI2EpIi8+PHBhdGggZD0iTTE1LjcyIDUuOTcyTDEwLjM1OC42Mjd2NC4zNTVhLjk4NC45ODQgMCAwMC45NzguOTl6IiBmaWxsPSIjMDA3OGQ0Ii8+PHBhdGggZD0iTTQuNjM5IDUuMjMxdjMuNTQ0YS4yODUuMjg1IDAgMDAuNDI2LjI0N2wzLjEtMS43NzJhLjI4NC4yODQgMCAwMDAtLjQ5NGwtMy4xLTEuNzcyYS4yODUuMjg1IDAgMDAtLjQyNi4yNDd6IiBmaWxsPSIjMzJiZWRkIi8+PHJlY3QgeD0iNC41ODgiIHk9IjEwLjQxOCIgd2lkdGg9IjcuMzciIGhlaWdodD0iLjk4OSIgcng9Ii40NDQiIGZpbGw9IiM1ZWEwZWYiLz48cmVjdCB4PSI0LjU4OCIgeT0iMTIuMTg5IiB3aWR0aD0iNy4zNyIgaGVpZ2h0PSIuOTg5IiByeD0iLjQ0NCIgZmlsbD0iIzVlYTBlZiIvPjxyZWN0IHg9IjQuNTg4IiB5PSIxMy45NjEiIHdpZHRoPSI0LjY0NSIgaGVpZ2h0PSIuOTg5IiByeD0iLjQ0NCIgZmlsbD0iIzVlYTBlZiIvPjwvc3ZnPg==;" vertex="1" parent="1">
                    <mxGeometry x="662" y="495" width="50" height="50" as="geometry"/>
                </mxCell>
                <mxCell id="87" style="edgeStyle=none;html=1;" edge="1" parent="1" source="67" target="66">
                    <mxGeometry relative="1" as="geometry">
                        <Array as="points">
                            <mxPoint x="150" y="567"/>
                            <mxPoint x="600" y="567"/>
                        </Array>
                    </mxGeometry>
                </mxCell>
                <mxCell id="67" value="Documents" style="aspect=fixed;html=1;points=[];align=center;image;fontSize=12;image=img/lib/azure2/general/Files.svg;" vertex="1" parent="1">
                    <mxGeometry x="67.09999999999997" y="509" width="32.92" height="36" as="geometry"/>
                </mxCell>
                <mxCell id="109" style="edgeStyle=none;html=1;" edge="1" parent="1" source="71">
                    <mxGeometry relative="1" as="geometry">
                        <mxPoint x="600" y="328.72877358490564" as="targetPoint"/>
                    </mxGeometry>
                </mxCell>
                <mxCell id="71" value="Azure OpenAI" style="shape=image;verticalLabelPosition=bottom;verticalAlign=top;imageAspect=1;aspect=fixed;image=data:image/svg+xml,PHN2ZyB4bWxucz0iaHR0cDovL3d3dy53My5vcmcvMjAwMC9zdmciIHZpZXdCb3g9IjAgMCAxOCAxOCI+PGRlZnM+PGxpbmVhckdyYWRpZW50IGlkPSJhIiB4MT0iOSIgeTE9IjE5LjEzIiB4Mj0iOSIgeTI9Ii0uMjkiIGdyYWRpZW50VW5pdHM9InVzZXJTcGFjZU9uVXNlIj48c3RvcCBvZmZzZXQ9IjAiIHN0b3AtY29sb3I9IiMwMDc4ZDQiLz48c3RvcCBvZmZzZXQ9Ii4xNiIgc3RvcC1jb2xvcj0iIzEzODBkYSIvPjxzdG9wIG9mZnNldD0iLjUzIiBzdG9wLWNvbG9yPSIjM2M5MWU1Ii8+PHN0b3Agb2Zmc2V0PSIuODIiIHN0b3AtY29sb3I9IiM1NTljZWMiLz48c3RvcCBvZmZzZXQ9IjEiIHN0b3AtY29sb3I9IiM1ZWEwZWYiLz48L2xpbmVhckdyYWRpZW50PjwvZGVmcz48cGF0aCBkPSJNMTggMTEuMzhhNCA0IDAgMDAtMy41MS0zLjg4IDUuMSA1LjEgMCAwMC01LjI1LTQuODhBNS4yNSA1LjI1IDAgMDA0LjIyIDYgNC44IDQuOCAwIDAwMCAxMC42N2E0LjkgNC45IDAgMDA1LjA3IDQuNzFoOC42NWEuNzguNzggMCAwMC4yMiAwIDQuMSA0LjEgMCAwMDQuMDYtNHoiIGZpbGw9InVybCgjYSkiLz48cGF0aCBkPSJNNS40MiAxMC4zOWgtLjg4YTEuMDkgMS4wOSAwIDEwMCAuNDloLjg4YS4yLjIgMCAwMS4yLjJ2NC4zaC40OXYtNC4zYS42OS42OSAwIDAwLS42OS0uNjl6bS0xLjk1Ljg4YS42NC42NCAwIDExLjY0LS42NC42NC42NCAwIDAxLS42NC42NHoiIGZpbGw9IiM5Y2ViZmYiLz48cGF0aCBkPSJNOC45NCAxMC42MXYtMWEuNy43IDAgMDAtLjctLjdINi42OWEuMi4yIDAgMDEtLjItLjJWMy40bC0uMjMuMTItLjI2LjE0djVhLjY5LjY5IDAgMDAuNjkuNjloMS41NWEuMjEuMjEgMCAwMS4yMS4yMXYxYTEuMDggMS4wOCAwIDAwLS44NSAxLjA2IDEuMDkgMS4wOSAwIDEwMS4zNC0xLjA2em0tLjI1IDEuN2EuNjQuNjQgMCAxMS42NC0uNjQuNjQuNjQgMCAwMS0uNjQuNjR6IiBmaWxsPSIjZjJmMmYyIi8+PHBhdGggZD0iTTE0LjUzIDguNWExLjA5IDEuMDkgMCAwMC0uMjUgMi4xNXYuMmEuMjEuMjEgMCAwMS0uMjEuMjFoLTJWNy41NGEuNjkuNjkgMCAwMC0uNjktLjY5aC0xLjAzQTEuMDggMS4wOCAwIDAwOS4yOSA2YTEuMDkgMS4wOSAwIDEwMS4wNiAxLjM0aDEuMDdhLjIuMiAwIDAxLjIuMnY3Ljg0aC40OXYtMy44M2gyYS43LjcgMCAwMC43LS43di0uMmExLjA5IDEuMDkgMCAwMC44NS0xLjA2IDEuMDkgMS4wOSAwIDAwLTEuMTMtMS4wOXptLTUuMjQtLjc3YS42NC42NCAwIDExLjY0LS42NC42NC42NCAwIDAxLS42NC42NHptNS4yNCAyLjVhLjY0LjY0IDAgMTEuNjMtLjY0LjY0LjY0IDAgMDEtLjYzLjY0eiIgZmlsbD0iIzljZWJmZiIvPjwvc3ZnPg==;fillColor=default;" vertex="1" parent="1">
                    <mxGeometry x="657" y="262" width="60" height="60" as="geometry"/>
                </mxCell>
                <mxCell id="86" value="" style="group" vertex="1" connectable="0" parent="1">
                    <mxGeometry x="350" y="254" width="260" height="255" as="geometry"/>
                </mxCell>
                <mxCell id="113" value="" style="whiteSpace=wrap;html=1;labelBackgroundColor=none;fillColor=default;dashed=1;dashPattern=1 1;" vertex="1" parent="86">
                    <mxGeometry x="40" y="9" width="220" height="234" as="geometry"/>
                </mxCell>
                <mxCell id="79" value="&lt;h1 style=&quot;box-sizing: inherit; color: var(--md-default-fg-color--light); line-height: 1.3; margin: 0px 0px 1.25em; font-weight: 300; letter-spacing: -0.01em; font-family: &amp;quot;Public Sans&amp;quot;, -apple-system, &amp;quot;system-ui&amp;quot;, Helvetica, Arial, sans-serif; text-align: start; background-color: rgb(255, 255, 255);&quot; id=&quot;langgraph&quot;&gt;🦜🕸️&lt;/h1&gt;" style="text;strokeColor=none;align=center;fillColor=none;html=1;verticalAlign=middle;whiteSpace=wrap;rounded=0;labelBackgroundColor=none;" vertex="1" parent="86">
                    <mxGeometry x="60.00000000000003" y="15" width="60" height="30" as="geometry"/>
                </mxCell>
                <mxCell id="81" value="LangGraph" style="text;strokeColor=none;align=center;fillColor=default;html=1;verticalAlign=middle;whiteSpace=wrap;rounded=0;fontSize=14;" vertex="1" parent="86">
                    <mxGeometry x="123" y="-4" width="120" height="30" as="geometry"/>
                </mxCell>
                <mxCell id="82" value="Analyst Agent" style="aspect=fixed;html=1;points=[];align=center;image;fontSize=12;image=img/lib/mscae/User_Resource.svg;imageBackground=#5BB6FC;rounded=0;" vertex="1" parent="86">
                    <mxGeometry x="77.0410638297872" y="156.05999999999995" width="45.95744680851064" height="47.87234042553192" as="geometry"/>
                </mxCell>
                <mxCell id="83" value="Reviewer Agent" style="aspect=fixed;html=1;points=[];align=center;image;fontSize=12;image=img/lib/mscae/User_Resource.svg;imageBackground=#6666FF;rounded=0;" vertex="1" parent="86">
                    <mxGeometry x="77.042340425532" y="56.059999999999945" width="45.95744680851064" height="47.87234042553192" as="geometry"/>
                </mxCell>
                <mxCell id="84" value="Inspector Agent" style="aspect=fixed;html=1;points=[];align=center;image;fontSize=12;image=img/lib/mscae/User_Resource.svg;rounded=0;labelBackgroundColor=none;imageBorder=none;imageBackground=#FF66FF;" vertex="1" parent="86">
                    <mxGeometry x="178.04191489361705" y="56.059999999999945" width="45.95744680851064" height="47.87234042553192" as="geometry"/>
                </mxCell>
                <mxCell id="85" value="Researcher Agent" style="aspect=fixed;html=1;points=[];align=center;image;fontSize=12;image=img/lib/mscae/User_Resource.svg;labelBackgroundColor=#FFFFFF;imageBackground=#FF9933;rounded=0;" vertex="1" parent="86">
                    <mxGeometry x="178.0419148936171" y="156.06" width="45.95744680851064" height="47.87234042553192" as="geometry"/>
                </mxCell>
                <mxCell id="88" value="Stategraph" style="shape=mxgraph.sysml.compState;align=left;verticalAlign=top;spacingTop=-3;spacingLeft=18;strokeWidth=1;recursiveResize=0;labelBackgroundColor=none;fillColor=default;" vertex="1" parent="1">
                    <mxGeometry x="234" y="361" width="136.57" height="195" as="geometry"/>
                </mxCell>
                <mxCell id="89" value="" style="shape=ellipse;html=1;fillColor=strokeColor;verticalLabelPosition=bottom;labelBackgroundColor=#ffffff;verticalAlign=top;" vertex="1" parent="88">
                    <mxGeometry x="20" y="37" width="20" height="20" as="geometry"/>
                </mxCell>
                <mxCell id="103" style="edgeStyle=none;html=1;" edge="1" parent="88" source="90" target="102">
                    <mxGeometry relative="1" as="geometry"/>
                </mxCell>
                <mxCell id="90" value="State1" style="strokeColor=inherit;fillColor=inherit;gradientColor=inherit;shape=rect;html=1;rounded=1;whiteSpace=wrap;align=center;labelBackgroundColor=none;" vertex="1" parent="88">
                    <mxGeometry x="65" y="40" width="60" height="40" as="geometry"/>
                </mxCell>
                <mxCell id="114" style="edgeStyle=none;html=1;" edge="1" parent="88">
                    <mxGeometry relative="1" as="geometry">
                        <mxPoint x="32.4059405940593" y="140" as="sourcePoint"/>
                        <mxPoint x="30" y="59" as="targetPoint"/>
                    </mxGeometry>
                </mxCell>
                <mxCell id="91" value="State2" style="strokeColor=inherit;fillColor=inherit;gradientColor=inherit;shape=rect;html=1;rounded=1;whiteSpace=wrap;align=center;labelBackgroundColor=none;" vertex="1" parent="88">
                    <mxGeometry x="14" y="140" width="50" height="40" as="geometry"/>
                </mxCell>
                <mxCell id="92" value="" style="strokeColor=inherit;fillColor=inherit;gradientColor=inherit;edgeStyle=none;html=1;endArrow=open;endSize=12;" edge="1" parent="88" source="89" target="90">
                    <mxGeometry relative="1" as="geometry"/>
                </mxCell>
                <mxCell id="93" value="" style="strokeColor=inherit;fillColor=inherit;gradientColor=inherit;edgeStyle=none;html=1;endArrow=open;endSize=12;" edge="1" parent="88" source="90" target="91">
                    <mxGeometry relative="1" as="geometry"/>
                </mxCell>
                <mxCell id="102" value="State3" style="strokeColor=inherit;fillColor=inherit;gradientColor=inherit;shape=rect;html=1;rounded=1;whiteSpace=wrap;align=center;labelBackgroundColor=none;" vertex="1" parent="88">
                    <mxGeometry x="76.57" y="120" width="50" height="40" as="geometry"/>
                </mxCell>
                <mxCell id="105" style="edgeStyle=none;html=1;entryX=0;entryY=0.5;entryDx=0;entryDy=0;" edge="1" parent="1" target="89">
                    <mxGeometry relative="1" as="geometry">
                        <mxPoint x="117.11999999999989" y="382.45167798670195" as="sourcePoint"/>
                        <mxPoint x="223.43000000000006" y="425" as="targetPoint"/>
                    </mxGeometry>
                </mxCell>
                <mxCell id="106" value="" style="shape=callout;whiteSpace=wrap;html=1;perimeter=calloutPerimeter;position2=0.99;size=30;position=0.76;rounded=0;base=20;" vertex="1" parent="1">
                    <mxGeometry x="137" y="418" width="113" height="110" as="geometry"/>
                </mxCell>
                <mxCell id="107" value="Report" style="shadow=0;dashed=0;html=1;strokeColor=none;fillColor=#4495D1;labelPosition=center;verticalLabelPosition=bottom;verticalAlign=top;align=center;outlineConnect=0;shape=mxgraph.veeam.checked_doc;labelBackgroundColor=default;rounded=0;spacing=-7;" vertex="1" parent="1">
                    <mxGeometry x="200.19" y="430.5" width="35.81" height="47.5" as="geometry"/>
                </mxCell>
                <mxCell id="108" value="Protocoll" style="sketch=0;pointerEvents=1;shadow=0;dashed=0;html=1;strokeColor=none;fillColor=#434445;aspect=fixed;labelPosition=center;verticalLabelPosition=bottom;verticalAlign=top;align=center;outlineConnect=0;shape=mxgraph.vvd.log_files;" vertex="1" parent="1">
                    <mxGeometry x="156" y="431.5" width="28" height="35" as="geometry"/>
                </mxCell>
                <mxCell id="111" style="edgeStyle=none;html=1;" edge="1" parent="1">
                    <mxGeometry relative="1" as="geometry">
                        <mxPoint x="553.9993617021278" y="430.01912144475" as="targetPoint"/>
                        <mxPoint x="662" y="411.3268817614987" as="sourcePoint"/>
                    </mxGeometry>
                </mxCell>
            </root>
        </mxGraphModel>
    </diagram>
</mxfile>